<mxfile host="app.diagrams.net" modified="2023-07-24T17:39:09.763Z" agent="Mozilla/5.0 (Windows NT 10.0; Win64; x64) AppleWebKit/537.36 (KHTML, like Gecko) Chrome/114.0.0.0 Safari/537.36" etag="cMlElaYK3VXys2jDk72u" version="21.6.5" type="device">
  <diagram name="Page-1" id="h5CdLSMIpvGGWE732fA0">
    <mxGraphModel dx="1050" dy="587" grid="1" gridSize="10" guides="1" tooltips="1" connect="1" arrows="1" fold="1" page="1" pageScale="1" pageWidth="850" pageHeight="1100" math="0" shadow="0">
      <root>
        <mxCell id="0" />
        <mxCell id="1" parent="0" />
        <mxCell id="4zI29-8UQfK42fgGl3dK-18" value="" style="edgeStyle=orthogonalEdgeStyle;rounded=0;orthogonalLoop=1;jettySize=auto;html=1;" edge="1" parent="1" source="4zI29-8UQfK42fgGl3dK-1" target="4zI29-8UQfK42fgGl3dK-2">
          <mxGeometry relative="1" as="geometry" />
        </mxCell>
        <mxCell id="4zI29-8UQfK42fgGl3dK-1" value="Start" style="rounded=1;whiteSpace=wrap;html=1;" vertex="1" parent="1">
          <mxGeometry x="365" y="30" width="120" height="60" as="geometry" />
        </mxCell>
        <mxCell id="4zI29-8UQfK42fgGl3dK-4" value="" style="edgeStyle=orthogonalEdgeStyle;rounded=0;orthogonalLoop=1;jettySize=auto;html=1;" edge="1" parent="1" source="4zI29-8UQfK42fgGl3dK-2" target="4zI29-8UQfK42fgGl3dK-3">
          <mxGeometry relative="1" as="geometry" />
        </mxCell>
        <mxCell id="4zI29-8UQfK42fgGl3dK-2" value="Number" style="rounded=0;whiteSpace=wrap;html=1;" vertex="1" parent="1">
          <mxGeometry x="365" y="120" width="120" height="60" as="geometry" />
        </mxCell>
        <mxCell id="4zI29-8UQfK42fgGl3dK-6" value="" style="edgeStyle=orthogonalEdgeStyle;rounded=0;orthogonalLoop=1;jettySize=auto;html=1;" edge="1" parent="1" source="4zI29-8UQfK42fgGl3dK-3">
          <mxGeometry relative="1" as="geometry">
            <mxPoint x="575" y="250" as="targetPoint" />
          </mxGeometry>
        </mxCell>
        <mxCell id="4zI29-8UQfK42fgGl3dK-8" value="" style="edgeStyle=orthogonalEdgeStyle;rounded=0;orthogonalLoop=1;jettySize=auto;html=1;" edge="1" parent="1" source="4zI29-8UQfK42fgGl3dK-3">
          <mxGeometry relative="1" as="geometry">
            <mxPoint x="275" y="250" as="targetPoint" />
          </mxGeometry>
        </mxCell>
        <mxCell id="4zI29-8UQfK42fgGl3dK-3" value="Number &amp;gt; 0" style="rhombus;whiteSpace=wrap;html=1;rounded=0;" vertex="1" parent="1">
          <mxGeometry x="360" y="210" width="130" height="80" as="geometry" />
        </mxCell>
        <mxCell id="4zI29-8UQfK42fgGl3dK-9" value="Yes" style="text;html=1;strokeColor=none;fillColor=none;align=center;verticalAlign=middle;whiteSpace=wrap;rounded=0;" vertex="1" parent="1">
          <mxGeometry x="490" y="220" width="60" height="30" as="geometry" />
        </mxCell>
        <mxCell id="4zI29-8UQfK42fgGl3dK-10" value="No" style="text;html=1;strokeColor=none;fillColor=none;align=center;verticalAlign=middle;whiteSpace=wrap;rounded=0;" vertex="1" parent="1">
          <mxGeometry x="290" y="220" width="60" height="30" as="geometry" />
        </mxCell>
        <mxCell id="4zI29-8UQfK42fgGl3dK-13" value="" style="endArrow=none;html=1;rounded=0;entryX=0.433;entryY=0.903;entryDx=0;entryDy=0;entryPerimeter=0;" edge="1" parent="1" target="4zI29-8UQfK42fgGl3dK-19">
          <mxGeometry width="50" height="50" relative="1" as="geometry">
            <mxPoint x="202" y="360" as="sourcePoint" />
            <mxPoint x="202.03999999999996" y="283.78" as="targetPoint" />
          </mxGeometry>
        </mxCell>
        <mxCell id="4zI29-8UQfK42fgGl3dK-14" value="" style="endArrow=none;html=1;rounded=0;entryX=0.517;entryY=0.903;entryDx=0;entryDy=0;entryPerimeter=0;" edge="1" parent="1" target="4zI29-8UQfK42fgGl3dK-20">
          <mxGeometry width="50" height="50" relative="1" as="geometry">
            <mxPoint x="640" y="360" as="sourcePoint" />
            <mxPoint x="640" y="280" as="targetPoint" />
          </mxGeometry>
        </mxCell>
        <mxCell id="4zI29-8UQfK42fgGl3dK-15" value="" style="endArrow=none;html=1;rounded=0;" edge="1" parent="1">
          <mxGeometry width="50" height="50" relative="1" as="geometry">
            <mxPoint x="200" y="360" as="sourcePoint" />
            <mxPoint x="640" y="360" as="targetPoint" />
          </mxGeometry>
        </mxCell>
        <mxCell id="4zI29-8UQfK42fgGl3dK-16" value="" style="endArrow=classic;html=1;rounded=0;" edge="1" parent="1" target="4zI29-8UQfK42fgGl3dK-17">
          <mxGeometry width="50" height="50" relative="1" as="geometry">
            <mxPoint x="420" y="360" as="sourcePoint" />
            <mxPoint x="420" y="420" as="targetPoint" />
          </mxGeometry>
        </mxCell>
        <mxCell id="4zI29-8UQfK42fgGl3dK-17" value="End" style="rounded=1;whiteSpace=wrap;html=1;" vertex="1" parent="1">
          <mxGeometry x="360" y="390" width="120" height="60" as="geometry" />
        </mxCell>
        <mxCell id="4zI29-8UQfK42fgGl3dK-19" value="&quot;False or 0&quot;" style="shape=document;whiteSpace=wrap;html=1;boundedLbl=1;" vertex="1" parent="1">
          <mxGeometry x="150" y="220" width="120" height="60" as="geometry" />
        </mxCell>
        <mxCell id="4zI29-8UQfK42fgGl3dK-20" value="&quot;True&quot;" style="shape=document;whiteSpace=wrap;html=1;boundedLbl=1;" vertex="1" parent="1">
          <mxGeometry x="580" y="220" width="120" height="60" as="geometry" />
        </mxCell>
      </root>
    </mxGraphModel>
  </diagram>
</mxfile>
